<svg xmlns="http://www.w3.org/2000/svg" xmlns:vectornator="http://vectornator.io" xml:space="preserve" width="512" height="512" stroke-miterlimit="10" style="fill-rule:nonzero;clip-rule:evenodd;stroke-linecap:round;stroke-linejoin:round" viewBox="0 0 512 512"><g id="bird"><g fill="#000002"><path vectornator:layerName="Oval 1" d="M393.399 434.579c0-27.984 7.028-50.67 15.697-50.67 8.67 0 15.698 22.686 15.698 50.67s-7.028 50.67-15.698 50.67c-8.669 0-15.697-22.686-15.697-50.67"/><path vectornator:layerName="Oval 2" d="M441.537 432.629c0-26.908 6.758-48.72 15.093-48.72 8.336 0 15.094 21.812 15.094 48.72s-6.758 48.72-15.094 48.72-15.093-21.813-15.093-48.72"/></g><path vectornator:layerName="black" fill="#000002" d="M21.565 448.092c-36.37-20.663 30.175-43.548 53.437-52.848 77.145-30.842 236.201-67.752 266.005-98.709 29.804-30.956 35.777-56.514 35.777-162.563 0-102.105 34.681-107.22 64.347-107.22s59.957 11.21 59.957 107.22v230.414c0 30.858 0 83.706-84.529 88.491s-87.009-33.6-140.728-34.994c-85.323-2.214-217.895 50.873-254.266 30.209"/><path vectornator:layerName="white" fill="#fff" d="M346.736 361.635c0-55.365 4.956-121.614 71.801-121.614s71.8 66.249 71.8 121.614c0 55.364-32.146 78.877-71.8 78.877-39.655 0-71.801-23.513-71.801-78.877"/><path vectornator:layerName="wing" fill="#195ea0" d="M373.874 370.026c-70.58 46.925-141.202 64.801-157.741 39.926-16.538-24.875 27.271-83.081 97.85-130.006 70.58-46.925 141.203-64.8 157.741-39.925 16.538 24.874-27.271 83.08-97.85 130.005"/><path vectornator:layerName="beak" fill="#ffd335" d="m414.834 105.097 25.799 71.369 25.798-71.369Z"/></g></svg>